<?xml version="1.0" encoding="utf-8"?>
<!-- Generator: Adobe Illustrator 16.0.0, SVG Export Plug-In . SVG Version: 6.00 Build 0)  -->
<!DOCTYPE svg PUBLIC "-//W3C//DTD SVG 1.1//EN" "http://www.w3.org/Graphics/SVG/1.1/DTD/svg11.dtd">
<svg version="1.1" id="Layer_1" xmlns="http://www.w3.org/2000/svg" xmlns:xlink="http://www.w3.org/1999/xlink" x="0px" y="0px"
	 width="595.28px" height="841.89px" viewBox="0 0 595.28 841.89" enable-background="new 0 0 595.28 841.89" xml:space="preserve">
<rect x="156.606" y="278.334" fill="#006F3F" width="283.464" height="283.465"/>
<g>
	<g>
		<g>
			<path fill="#FFFFFF" d="M236.417,500.318v-10.563h3.106v10.563h18.897v2.692H217.52v-2.692H236.417z M234.346,480.489h-16.568
				v-2.693h18.587v-4.09h3.21v4.09h18.587v2.693h-16.619l16.774,14.237h-4.66L237.971,480.8l-15.688,13.927h-4.659L234.346,480.489z
				 M221.662,516.369h36.76v2.691h-39.867v-10.977h3.107V516.369z"/>
			<path fill="#FFFFFF" d="M268.155,513.417c0.689,0,1.32,0.25,1.89,0.751c0.569,0.5,0.854,1.182,0.854,2.045
				c0,0.897-0.285,1.596-0.854,2.098c-0.569,0.5-1.2,0.75-1.89,0.75c-0.691,0-1.32-0.25-1.89-0.75
				c-0.57-0.502-0.854-1.2-0.854-2.098c0-0.863,0.284-1.545,0.854-2.045C266.834,513.667,267.463,513.417,268.155,513.417z"/>
			<path fill="#FFFFFF" d="M296.785,500.318v-10.563h3.106v10.563h18.897v2.692h-40.901v-2.692H296.785z M294.714,480.489h-16.568
				v-2.693h18.586v-4.09h3.21v4.09h18.587v2.693h-16.62l16.775,14.237h-4.659L298.338,480.8l-15.688,13.927h-4.66L294.714,480.489z
				 M282.029,516.369h36.76v2.691h-39.867v-10.977h3.107V516.369z"/>
			<path fill="#FFFFFF" d="M328.522,513.417c0.689,0,1.32,0.25,1.89,0.751c0.569,0.5,0.854,1.182,0.854,2.045
				c0,0.897-0.284,1.596-0.854,2.098c-0.569,0.5-1.2,0.75-1.89,0.75c-0.691,0-1.32-0.25-1.89-0.75
				c-0.57-0.502-0.854-1.2-0.854-2.098c0-0.863,0.284-1.545,0.854-2.045C327.202,513.667,327.831,513.417,328.522,513.417z"/>
			<path fill="#FFFFFF" d="M357.153,500.318v-10.563h3.106v10.563h18.897v2.692h-40.901v-2.692H357.153z M355.082,480.489h-16.568
				v-2.693h18.588v-4.09h3.21v4.09h18.586v2.693h-16.619l16.775,14.237h-4.66L358.706,480.8l-15.688,13.927h-4.659L355.082,480.489z
				 M342.397,516.369h36.76v2.691h-39.866v-10.977h3.106V516.369z"/>
		</g>
	</g>
	<path fill="#FFFFFF" d="M394.314,350.814c-0.16-0.022-15.726-2.037-18.467,9.846l-52.432-3.09
		c-0.171-0.539-0.296-1.046-0.359-1.506c-0.385-2.801-0.39-5.876-0.396-8.851c-0.007-4.165-0.014-8.099-1.009-11.433
		c-3.013-10.087-14.072-16.373-25.171-14.319c-12.99,2.409-15.664,9.554-19.271,21.976c-0.158,0.541-0.313,1.104-0.473,1.682
		c-1.138,4.119-2.428,8.788-6.323,12.138c-0.765,0.665-5.153,0.987-16.066-5.364c-8.023-4.667-15.623-10.684-17.624-12.741
		c-4.18-4.298-10.286-7.263-14.516-4.197c-1.031,0.748-1.762,1.787-2.114,2.984c-0.236,0.032-0.472,0.079-0.708,0.14
		c-1.734,0.446-3.146,1.602-3.971,3.255c-0.496,0.99-0.694,1.994-0.663,2.972c-0.013,0.007-0.024,0.015-0.036,0.022
		c-1.011,0.646-2.315,1.931-2.778,4.397c-0.255,1.357,0.032,2.647,0.616,3.82c-0.004,0.004-0.008,0.008-0.01,0.012
		c-1.76,2.066-1.819,4.917-0.154,7.439c2.159,3.272,25.522,17.863,44.006,24.25l-22.294,22.527
		c-24.184-6.56-32.399,11.219-32.479,11.401c-0.182,0.407-0.055,0.887,0.304,1.152l37.438,27.688
		c0.17,0.124,0.369,0.186,0.567,0.186c0.267,0,0.531-0.111,0.719-0.326c0.346-0.396,34.813-39.761,44.196-45.667
		c5.116-3.219,11.926-6.279,19.511-8.477c6.324,5.556,15.036,13.639,21.9,21.635c3.902,4.547,8.889,10.931,13.71,17.104
		c15.15,19.397,19.771,24.759,23.401,25.52c0.473,0.1,0.939,0.148,1.395,0.148c1.174,0,2.273-0.325,3.215-0.956
		c1.195,0.445,2.506,0.461,3.775,0.028c1.229-0.417,2.27-1.184,3.019-2.207c0.412,0.044,0.842,0.047,1.288-0.002
		c1.626-0.173,3.039-1.001,3.979-2.333c0.34-0.48,0.598-1.003,0.792-1.545c1.04-0.196,2.022-0.718,2.866-1.538
		c1.063-1.034,2.311-2.936,2.221-6.126c-0.346-12.21-22.228-39.581-35.229-52.721h43.494c0.528,0,0.954-0.426,0.954-0.953v-37.024
		C395.137,351.283,394.785,350.879,394.314,350.814z M289.006,346.577c0.344-0.349,0.902-0.35,1.25-0.009
		c0.26,0.254,6.462,6.179,13.984,0.375c0.385-0.3,0.941-0.227,1.24,0.16c0.299,0.386,0.227,0.941-0.16,1.24
		c-2.793,2.156-5.456,2.892-7.789,2.892c-4.984,0-8.467-3.358-8.518-3.408C288.666,347.484,288.663,346.924,289.006,346.577z
		 M289.833,340.603c0-0.575,0.469-1.043,1.045-1.043s1.043,0.468,1.043,1.043c0,0.575-0.467,1.045-1.043,1.045
		S289.833,341.177,289.833,340.603z M302.43,340.603c0-0.575,0.47-1.043,1.047-1.043c0.575,0,1.043,0.468,1.043,1.043
		c0,0.575-0.468,1.045-1.043,1.045C302.899,341.647,302.43,341.177,302.43,340.603z M383.059,442.538
		c0.048,1.729-0.407,3.071-1.355,3.994c-0.848,0.825-1.692,0.876-2.251,0.776c-0.351-0.063-0.677-0.201-0.977-0.387
		c-0.01,1.11-0.193,2.272-0.772,3.094c-0.466,0.659-1.138,1.054-1.944,1.139c-1.013,0.113-1.861-0.271-2.563-0.867
		c-0.06,0.509-0.184,1.006-0.396,1.455c-0.398,0.85-1.078,1.456-1.963,1.757c-0.804,0.273-1.598,0.201-2.292-0.206
		c-0.391-0.229-0.721-0.55-1-0.913c-0.206,0.45-0.486,0.868-0.865,1.2c-0.391,0.34-1.015,0.695-1.918,0.695
		c-0.247,0-0.516-0.026-0.805-0.087c-2.913-0.611-10.155-9.656-21.733-24.48c-4.842-6.199-9.849-12.609-13.795-17.207
		c-12.342-14.375-30.529-28.999-30.711-29.145c-0.411-0.33-0.477-0.931-0.147-1.34c0.33-0.411,0.93-0.478,1.34-0.148
		c0.183,0.146,18.51,14.882,30.966,29.392c3.975,4.629,8.995,11.057,13.85,17.274c8.1,10.369,18.182,23.276,20.623,23.788
		c0.632,0.131,0.917-0.039,1.078-0.181c0.696-0.607,0.815-2.343,0.763-3.089c-0.036-0.504,0.329-0.948,0.831-1.012
		c0.5-0.063,0.967,0.277,1.059,0.774c0.16,0.864,0.693,2.401,1.433,2.835c0.153,0.089,0.357,0.166,0.712,0.043
		c0.399-0.136,0.67-0.377,0.852-0.762c0.556-1.18,0.095-3.288-0.248-4.402c-0.098-0.266-0.16-0.461-0.188-0.551
		c-0.148-0.491,0.119-1.012,0.604-1.179c0.487-0.167,1.017,0.082,1.2,0.564c0.03,0.076,0.104,0.274,0.193,0.562
		c0.528,1.391,1.675,3.468,2.922,3.333c0.261-0.028,0.437-0.13,0.586-0.342c0.681-0.962,0.42-3.47,0.097-4.824
		c-0.113-0.475,0.15-0.958,0.61-1.12c0.462-0.162,0.97,0.049,1.18,0.49c0.348,0.729,1.148,1.859,1.762,1.97
		c0.071,0.011,0.259,0.046,0.581-0.268c0.55-0.534,0.813-1.401,0.778-2.573c-0.319-11.281-25.936-43.001-38.377-53.8
		c-11.304-9.813-23.329-23.982-24.44-32.079c-0.429-3.12-0.435-6.359-0.439-9.491c-0.007-3.809-0.013-7.407-0.811-10.078
		c-2.285-7.654-11.139-12.583-19.734-10.995c-10.299,1.909-12.215,7.087-15.563,18.617c-0.151,0.522-0.302,1.065-0.456,1.623
		c-1.253,4.538-2.814,10.186-7.808,14.483c-8.499,7.311-36.374-14.444-40.218-18.396c-2.992-3.078-6.79-4.758-8.296-3.664
		c-0.22,0.159-0.336,0.351-0.374,0.62c-0.132,0.938,0.725,2.447,1.296,3.18c0.29,0.371,0.265,0.898-0.057,1.24
		c-0.323,0.344-0.847,0.398-1.234,0.134c-0.644-0.441-2.773-1.624-4.07-1.289c-0.398,0.104-0.683,0.349-0.893,0.77
		c-0.752,1.505,1.561,3.355,1.584,3.374c0.358,0.277,0.473,0.768,0.275,1.174c-0.199,0.405-0.651,0.621-1.092,0.506
		c-1.188-0.302-2.511-0.593-3.166-0.172c-0.321,0.205-0.537,0.617-0.657,1.258c-0.186,0.984,1.918,3.056,3.507,4.173
		c0.402,0.282,0.523,0.825,0.281,1.252c-0.244,0.429-0.771,0.602-1.22,0.397c-1.329-0.596-2.546-0.334-3.017,0.219
		c-0.438,0.516-0.137,1.222,0.194,1.724c1.278,1.916,31.633,21.23,49.813,24.647c0.518,0.097,0.858,0.595,0.761,1.113
		c-0.096,0.517-0.589,0.861-1.113,0.76c-18.434-3.465-49.332-22.862-51.051-25.471c-0.949-1.436-0.969-2.936-0.055-4.01
		c0.477-0.561,1.146-0.938,1.911-1.114c-1.127-1.167-2.146-2.655-1.885-4.042c0.221-1.172,0.727-2.018,1.505-2.514
		c0.581-0.371,1.247-0.507,1.952-0.507c0.008,0,0.017,0,0.026,0c-0.61-1.069-0.895-2.348-0.259-3.62
		c0.456-0.914,1.192-1.523,2.125-1.764c0.932-0.239,1.948-0.083,2.86,0.206c-0.194-0.609-0.299-1.26-0.212-1.884
		c0.109-0.78,0.505-1.439,1.143-1.903c2.7-1.957,7.47,0.469,10.783,3.879c5.187,5.333,31.12,23.861,37.607,18.28
		c4.555-3.918,6.029-9.257,7.214-13.544c0.157-0.568,0.308-1.119,0.461-1.647c3.484-11.992,5.662-17.85,17.047-19.961
		c9.686-1.796,19.308,3.619,21.909,12.326c0.877,2.935,0.884,6.667,0.89,10.619c0.006,3.07,0.011,6.243,0.422,9.236
		c1.048,7.63,12.767,21.319,23.802,30.897C355.483,397.298,382.701,429.92,383.059,442.538z"/>
</g>
</svg>
