<?xml version="1.0" encoding="utf-8"?>
<!-- Generator: Adobe Illustrator 16.0.0, SVG Export Plug-In . SVG Version: 6.00 Build 0)  -->
<!DOCTYPE svg PUBLIC "-//W3C//DTD SVG 1.1//EN" "http://www.w3.org/Graphics/SVG/1.1/DTD/svg11.dtd">
<svg version="1.1" id="Layer_1" xmlns="http://www.w3.org/2000/svg" xmlns:xlink="http://www.w3.org/1999/xlink" x="0px" y="0px"
	 width="283.464px" height="283.464px" viewBox="156.606 278.334 283.464 283.464"
	 enable-background="new 156.606 278.334 283.464 283.464" xml:space="preserve">
<rect x="156.606" y="278.334" fill="#006F3F" width="283.464" height="283.464"/>
<g>
	<g>
		<g>
			<path fill="#FFFFFF" d="M236.417,500.318v-10.563h3.105v10.563h18.897v2.691h-40.9v-2.691H236.417z M234.346,480.49h-16.568
				v-2.693h18.587v-4.09h3.211v4.09h18.587v2.693h-16.619l16.773,14.236h-4.66L237.971,480.8l-15.688,13.926h-4.659L234.346,480.49z
				 M221.662,516.369h36.76v2.691h-39.867v-10.977h3.107V516.369L221.662,516.369z"/>
			<path fill="#FFFFFF" d="M268.155,513.417c0.689,0,1.32,0.25,1.891,0.75c0.568,0.5,0.854,1.182,0.854,2.045
				c0,0.898-0.285,1.596-0.854,2.098c-0.569,0.5-1.2,0.75-1.891,0.75s-1.319-0.25-1.89-0.75c-0.57-0.502-0.854-1.199-0.854-2.098
				c0-0.863,0.283-1.545,0.854-2.045C266.834,513.667,267.463,513.417,268.155,513.417z"/>
			<path fill="#FFFFFF" d="M296.785,500.318v-10.563h3.105v10.563h18.896v2.691h-40.9v-2.691H296.785z M294.714,480.49h-16.568
				v-2.693h18.586v-4.09h3.21v4.09h18.587v2.693h-16.62l16.775,14.236h-4.659L298.338,480.8l-15.688,13.926h-4.659L294.714,480.49z
				 M282.029,516.369h36.76v2.691h-39.866v-10.977h3.106V516.369z"/>
			<path fill="#FFFFFF" d="M328.522,513.417c0.689,0,1.32,0.25,1.89,0.75s0.854,1.182,0.854,2.045c0,0.898-0.284,1.596-0.854,2.098
				c-0.568,0.5-1.199,0.75-1.89,0.75c-0.691,0-1.32-0.25-1.89-0.75c-0.57-0.502-0.854-1.199-0.854-2.098
				c0-0.863,0.284-1.545,0.854-2.045C327.201,513.667,327.83,513.417,328.522,513.417z"/>
			<path fill="#FFFFFF" d="M357.153,500.318v-10.563h3.106v10.563h18.896v2.691h-40.9v-2.691H357.153z M355.081,480.49h-16.567
				v-2.693h18.588v-4.09h3.21v4.09h18.586v2.693h-16.619l16.775,14.236h-4.66L358.705,480.8l-15.688,13.926h-4.659L355.081,480.49z
				 M342.397,516.369h36.76v2.691h-39.865v-10.977h3.105V516.369z"/>
		</g>
	</g>
	<path fill="#FFFFFF" d="M394.314,350.814c-0.16-0.022-15.726-2.037-18.467,9.846l-52.433-3.09
		c-0.171-0.539-0.296-1.046-0.358-1.506c-0.385-2.801-0.391-5.876-0.396-8.851c-0.007-4.165-0.014-8.099-1.009-11.433
		c-3.013-10.087-14.072-16.373-25.171-14.319c-12.99,2.409-15.664,9.554-19.271,21.976c-0.158,0.541-0.313,1.104-0.474,1.682
		c-1.138,4.119-2.428,8.788-6.322,12.138c-0.766,0.665-5.153,0.987-16.066-5.364c-8.022-4.667-15.623-10.684-17.624-12.741
		c-4.18-4.298-10.286-7.263-14.516-4.197c-1.031,0.748-1.763,1.787-2.114,2.984c-0.236,0.032-0.472,0.079-0.708,0.14
		c-1.734,0.446-3.146,1.602-3.971,3.255c-0.496,0.99-0.694,1.994-0.663,2.972c-0.014,0.007-0.024,0.015-0.036,0.022
		c-1.011,0.646-2.315,1.931-2.778,4.397c-0.255,1.357,0.032,2.647,0.616,3.82c-0.004,0.004-0.008,0.008-0.01,0.012
		c-1.76,2.066-1.819,4.917-0.154,7.439c2.159,3.272,25.522,17.863,44.006,24.25l-22.294,22.527
		c-24.184-6.56-32.398,11.219-32.479,11.401c-0.183,0.407-0.056,0.887,0.304,1.152l37.438,27.687
		c0.171,0.125,0.369,0.188,0.567,0.188c0.268,0,0.531-0.111,0.719-0.326c0.347-0.396,34.813-39.761,44.196-45.667
		c5.116-3.219,11.926-6.279,19.511-8.477c6.324,5.556,15.036,13.639,21.9,21.635c3.901,4.547,8.889,10.931,13.71,17.103
		c15.149,19.398,19.771,24.76,23.4,25.521c0.474,0.1,0.939,0.146,1.396,0.146c1.174,0,2.272-0.324,3.215-0.955
		c1.195,0.445,2.506,0.461,3.775,0.027c1.229-0.416,2.27-1.184,3.019-2.207c0.412,0.045,0.842,0.047,1.288-0.002
		c1.626-0.172,3.039-1,3.979-2.332c0.341-0.48,0.599-1.004,0.792-1.545c1.04-0.197,2.022-0.719,2.866-1.539
		c1.063-1.033,2.312-2.936,2.222-6.125c-0.347-12.211-22.229-39.582-35.229-52.722h43.494c0.528,0,0.954-0.426,0.954-0.953V351.76
		C395.137,351.283,394.784,350.879,394.314,350.814z M289.006,346.577c0.344-0.349,0.902-0.35,1.25-0.009
		c0.26,0.254,6.462,6.179,13.983,0.375c0.386-0.3,0.941-0.227,1.24,0.16c0.299,0.386,0.227,0.941-0.16,1.24
		c-2.793,2.156-5.456,2.892-7.789,2.892c-4.983,0-8.467-3.358-8.518-3.408C288.666,347.484,288.663,346.924,289.006,346.577z
		 M289.833,340.603c0-0.575,0.469-1.043,1.045-1.043s1.043,0.468,1.043,1.043s-0.467,1.045-1.043,1.045
		S289.833,341.177,289.833,340.603z M302.43,340.603c0-0.575,0.47-1.043,1.047-1.043c0.575,0,1.043,0.468,1.043,1.043
		s-0.468,1.045-1.043,1.045C302.899,341.647,302.43,341.177,302.43,340.603z M383.059,442.539c0.048,1.729-0.407,3.07-1.355,3.994
		c-0.848,0.824-1.691,0.875-2.251,0.775c-0.351-0.063-0.677-0.201-0.977-0.387c-0.01,1.109-0.193,2.271-0.772,3.094
		c-0.466,0.658-1.138,1.055-1.943,1.139c-1.014,0.113-1.861-0.271-2.563-0.867c-0.06,0.51-0.184,1.006-0.396,1.455
		c-0.398,0.85-1.078,1.457-1.963,1.758c-0.805,0.273-1.599,0.201-2.292-0.207c-0.392-0.229-0.722-0.549-1-0.912
		c-0.206,0.449-0.486,0.867-0.865,1.199c-0.392,0.34-1.016,0.695-1.918,0.695c-0.247,0-0.517-0.025-0.806-0.086
		c-2.912-0.611-10.154-9.656-21.732-24.48c-4.842-6.199-9.849-12.609-13.795-17.208c-12.342-14.375-30.529-28.999-30.711-29.145
		c-0.411-0.33-0.477-0.931-0.147-1.34c0.33-0.411,0.931-0.478,1.34-0.148c0.184,0.146,18.511,14.882,30.967,29.392
		c3.975,4.629,8.994,11.058,13.85,17.275c8.1,10.369,18.182,23.275,20.623,23.787c0.632,0.131,0.917-0.039,1.078-0.182
		c0.696-0.605,0.814-2.342,0.763-3.088c-0.036-0.504,0.329-0.949,0.831-1.012c0.5-0.064,0.967,0.277,1.059,0.773
		c0.16,0.863,0.693,2.4,1.434,2.836c0.153,0.088,0.356,0.166,0.712,0.043c0.398-0.137,0.67-0.377,0.852-0.764
		c0.557-1.18,0.096-3.287-0.248-4.4c-0.098-0.268-0.159-0.461-0.188-0.553c-0.148-0.49,0.119-1.012,0.604-1.178
		c0.487-0.168,1.018,0.082,1.2,0.564c0.03,0.074,0.104,0.273,0.193,0.561c0.528,1.393,1.675,3.469,2.922,3.334
		c0.261-0.029,0.437-0.131,0.586-0.342c0.681-0.963,0.42-3.471,0.097-4.824c-0.112-0.475,0.15-0.959,0.61-1.121
		c0.462-0.162,0.97,0.049,1.18,0.49c0.349,0.73,1.148,1.859,1.763,1.971c0.07,0.012,0.259,0.045,0.581-0.268
		c0.55-0.535,0.813-1.402,0.777-2.574c-0.318-11.281-25.936-43-38.377-53.799c-11.304-9.813-23.329-23.982-24.439-32.079
		c-0.43-3.12-0.436-6.359-0.439-9.491c-0.007-3.809-0.013-7.407-0.811-10.078c-2.285-7.654-11.14-12.583-19.734-10.995
		c-10.299,1.909-12.215,7.087-15.563,18.617c-0.151,0.522-0.303,1.065-0.456,1.623c-1.253,4.538-2.814,10.186-7.809,14.483
		c-8.499,7.311-36.374-14.444-40.218-18.396c-2.992-3.078-6.79-4.758-8.296-3.664c-0.22,0.159-0.336,0.351-0.374,0.62
		c-0.132,0.938,0.725,2.447,1.296,3.18c0.29,0.371,0.266,0.898-0.057,1.24c-0.323,0.344-0.848,0.398-1.234,0.134
		c-0.644-0.441-2.772-1.624-4.069-1.289c-0.398,0.104-0.684,0.349-0.894,0.77c-0.752,1.505,1.562,3.355,1.584,3.374
		c0.358,0.277,0.473,0.768,0.275,1.174c-0.199,0.405-0.651,0.621-1.093,0.506c-1.188-0.302-2.511-0.593-3.165-0.172
		c-0.321,0.205-0.537,0.617-0.657,1.258c-0.187,0.984,1.918,3.056,3.507,4.173c0.402,0.282,0.522,0.825,0.281,1.252
		c-0.244,0.429-0.771,0.602-1.221,0.397c-1.329-0.596-2.546-0.334-3.017,0.219c-0.438,0.516-0.137,1.222,0.194,1.724
		c1.277,1.916,31.633,21.23,49.813,24.647c0.519,0.097,0.858,0.595,0.761,1.113c-0.096,0.517-0.589,0.861-1.112,0.76
		c-18.435-3.465-49.332-22.862-51.052-25.471c-0.948-1.436-0.969-2.936-0.055-4.01c0.478-0.561,1.146-0.938,1.911-1.114
		c-1.127-1.167-2.146-2.655-1.885-4.042c0.221-1.172,0.727-2.018,1.505-2.514c0.581-0.371,1.247-0.507,1.952-0.507
		c0.008,0,0.017,0,0.025,0c-0.609-1.069-0.895-2.348-0.259-3.62c0.456-0.914,1.192-1.523,2.125-1.764
		c0.933-0.239,1.948-0.083,2.86,0.206c-0.194-0.609-0.299-1.26-0.212-1.884c0.108-0.78,0.505-1.439,1.143-1.903
		c2.7-1.957,7.47,0.469,10.783,3.879c5.187,5.333,31.12,23.861,37.606,18.28c4.556-3.918,6.029-9.257,7.215-13.544
		c0.156-0.568,0.308-1.119,0.461-1.647c3.483-11.992,5.662-17.85,17.047-19.961c9.686-1.796,19.308,3.619,21.908,12.326
		c0.877,2.935,0.885,6.667,0.891,10.619c0.006,3.07,0.011,6.243,0.422,9.236c1.048,7.63,12.767,21.319,23.802,30.897
		C355.483,397.298,382.7,429.919,383.059,442.539z"/>
</g>
</svg>
