<?xml version="1.0" encoding="UTF-8"?>
<svg id="_레이어_1" data-name="레이어 1" xmlns="http://www.w3.org/2000/svg" viewBox="0 0 305 305">
  <path d="M305,305H0V0h305v305ZM196.09,284h87.91v-62c-30.02,5.4-60.62,8.43-91.31,9.05.72,3.26,1.67,6.28,2.65,9.37,3.53,11.2,7.17,22.72.75,43.58ZM21,284h152.9c7.25-18.79,4.75-26.7,1.42-37.26-1.45-4.6-3.03-9.6-3.99-15.65-35.72-.59-71.38-4.45-106.11-11.5l4.18-20.58c33.25,6.75,67.37,10.47,101.57,11.07.66-5.63,1.79-10.74,2.77-15.15.92-4.13,2.29-10.32,1.76-12.19-.6-.46-4.17-2.61-18.45-2.61-18.78,0-30.38-1.51-37.94-9.47-8.78-9.26-8.09-22.43-6.83-46.33.6-11.29,1.34-25.35,1.34-42.82v-.77c-31.14.58-62.2,3.74-92.6,9.42v193.85ZM134.6,80.73v.77c0,18.02-.76,32.38-1.37,43.92-.76,14.43-1.48,28.06,1.09,30.77,1.84,1.94,9.48,2.93,22.7,2.93,18.54,0,28.98,3.14,34.89,10.51,6.98,8.7,4.61,19.44,2.3,29.83-.76,3.45-1.54,6.96-2.09,10.58,30.89-.62,61.7-3.77,91.86-9.41V21h-149.4v38.73c35.42.64,70.75,4.49,105.19,11.48l-4.18,20.58c-33.06-6.71-66.99-10.43-101.01-11.06ZM21,21v47.8c30.43-5.47,61.48-8.51,92.6-9.07V21H21ZM57.12,140.02l-16.53-12.96c10.71-13.65,23.53-25.28,38.11-34.55l11.27,17.72c-12.57,7.99-23.62,18.01-32.85,29.79ZM191.08,140.02c-9.23-11.77-20.28-21.79-32.85-29.78l11.26-17.72c14.59,9.27,27.41,20.9,38.11,34.55l-16.53,12.95Z"/>
</svg>